grf
version=1
nRows=19
nColumns=37
inDegrees=no
endheader
time	ground_force_1_vx	ground_force_1_vy	ground_force_1_vz	ground_force_1_px	ground_force_1_py	ground_force_1_pz	ground_moment_1_mx	ground_moment_1_my	ground_moment_1_mz	ground_force_2_vx	ground_force_2_vy	ground_force_2_vz	ground_force_2_px	ground_force_2_py	ground_force_2_pz	ground_moment_2_mx	ground_moment_2_my	ground_moment_2_mz	ground_force_3_vx	ground_force_3_vy	ground_force_3_vz	ground_force_3_px	ground_force_3_py	ground_force_3_pz	ground_moment_3_mx	ground_moment_3_my	ground_moment_3_mz	ground_force_4_vx	ground_force_4_vy	ground_force_4_vz	ground_force_4_px	ground_force_4_py	ground_force_4_pz	ground_moment_4_mx	ground_moment_4_my	ground_moment_4_mz
      0.00000000	      0.00000000	     -0.00000000	      0.00000000	      0.00000000	      0.00000000	      0.00000000	      0.00000000	      0.00000000	      0.00000000	    -19.37957954	     84.07646179	   -536.96600342	   -297.16003033	  -1125.53347399	      0.00000000	      0.00000000	      0.00000000	   2363.76378661	     -2.82486365	    -62.52484106	   -370.75048828	   -302.78832676	   -663.12653127	      0.00000000	      0.00000000	     -0.00000000	    -35.13724788	      0.00000000	     -0.00000000	      0.00000000	      0.00000000	      0.00000000	      0.00000000	      0.00000000	      0.00000000	      0.00000000
      0.01000000	      0.00000000	     -0.00000000	      0.00000000	      0.00000000	      0.00000000	      0.00000000	      0.00000000	      0.00000000	      0.00000000	    -18.46657562	     75.04096222	   -490.70318604	   -296.12130531	  -1125.33489513	      0.00000000	      0.00000000	      0.00000000	   2276.68217667	     -2.92063514	    -69.91003392	   -415.57101440	   -305.73389415	   -661.67873508	      0.00000000	      0.00000000	     -0.00000000	   -607.94930197	      0.00000000	     -0.00000000	      0.00000000	      0.00000000	      0.00000000	      0.00000000	      0.00000000	      0.00000000	      0.00000000
      0.02000000	      0.00000000	     -0.00000000	      0.00000000	      0.00000000	      0.00000000	      0.00000000	      0.00000000	      0.00000000	      0.00000000	    -17.47851181	     66.71147156	   -439.54873657	   -296.57021316	  -1125.97098610	      0.00000000	      0.00000000	      0.00000000	   1940.83946691	     -0.68951245	    -78.57825464	   -460.98602295	   -307.45759210	   -662.50134117	      0.00000000	      0.00000000	     -0.00000000	  -1078.37745387	      0.00000000	     -0.00000000	      0.00000000	      0.00000000	      0.00000000	      0.00000000	      0.00000000	      0.00000000	      0.00000000
      0.03000000	      0.00000000	     -0.00000000	      0.00000000	      0.00000000	      0.00000000	      0.00000000	      0.00000000	      0.00000000	      0.00000000	    -15.64137268	     57.12596512	   -381.52502441	   -297.45595342	  -1124.75488801	      0.00000000	      0.00000000	      0.00000000	   1922.18652812	      1.45902584	    -87.45822156	   -507.47341919	   -309.91237679	   -662.85870016	      0.00000000	      0.00000000	     -0.00000000	  -1442.60533813	      0.00000000	     -0.00000000	      0.00000000	      0.00000000	      0.00000000	      0.00000000	      0.00000000	      0.00000000	      0.00000000
      0.04000000	      0.00000000	     -0.00000000	      0.00000000	      0.00000000	      0.00000000	      0.00000000	      0.00000000	      0.00000000	      0.00000000	    -12.15211964	     48.49818420	   -326.10678101	   -300.56798339	  -1126.42751749	      0.00000000	      0.00000000	      0.00000000	   2000.50521131	      1.56440169	    -96.13268294	   -556.00231934	   -311.71175733	   -662.57356985	      0.00000000	      0.00000000	     -0.00000000	  -2068.52160613	      0.00000000	     -0.00000000	      0.00000000	      0.00000000	      0.00000000	      0.00000000	      0.00000000	      0.00000000	      0.00000000
      0.05000000	      0.00000000	     -0.00000000	      0.00000000	      0.00000000	      0.00000000	      0.00000000	      0.00000000	      0.00000000	      0.00000000	     -7.88870001	     38.51708221	   -270.03115845	   -301.56718003	  -1125.99406502	      0.00000000	      0.00000000	      0.00000000	   1712.78173242	      0.67787599	   -104.43423468	   -601.33929443	   -312.53593706	   -663.38284845	      0.00000000	      0.00000000	     -0.00000000	  -2249.01059709	      0.00000000	     -0.00000000	      0.00000000	      0.00000000	      0.00000000	      0.00000000	      0.00000000	      0.00000000	      0.00000000
      0.06000000	      0.00000000	     -0.00000000	      0.00000000	      0.00000000	      0.00000000	      0.00000000	      0.00000000	      0.00000000	      0.00000000	     -3.18646383	     29.53483582	   -219.85710144	   -307.18958535	  -1123.18567275	      0.00000000	      0.00000000	      0.00000000	   1871.57076682	     -0.18995147	   -112.19348143	   -643.98339844	   -312.96990522	   -663.87066166	      0.00000000	      0.00000000	     -0.00000000	  -2388.20865979	      0.00000000	     -0.00000000	      0.00000000	      0.00000000	      0.00000000	      0.00000000	      0.00000000	      0.00000000	      0.00000000
      0.07000000	      0.00000000	     -0.00000000	      0.00000000	      0.00000000	      0.00000000	      0.00000000	      0.00000000	      0.00000000	      0.00000000	      1.87342072	     22.26413155	   -179.01344299	   -311.81887933	  -1123.53008939	      0.00000000	      0.00000000	      0.00000000	   1782.78295022	     -0.61484193	   -117.22122950	   -689.34625244	   -313.47780619	   -663.77607123	      0.00000000	      0.00000000	     -0.00000000	  -2226.42222745	      0.00000000	     -0.00000000	      0.00000000	      0.00000000	      0.00000000	      0.00000000	      0.00000000	      0.00000000	      0.00000000
      0.08000000	      0.00000000	     -0.00000000	      0.00000000	      0.00000000	      0.00000000	      0.00000000	      0.00000000	      0.00000000	      0.00000000	      5.26342010	     17.65384102	   -141.78742981	   -319.54544278	  -1119.20373344	      0.00000000	      0.00000000	      0.00000000	   1624.73418400	      0.53826450	   -120.77763371	   -730.77429199	   -314.62351160	   -664.13023936	      0.00000000	      0.00000000	     -0.00000000	  -2182.74248426	      0.00000000	     -0.00000000	      0.00000000	      0.00000000	      0.00000000	      0.00000000	      0.00000000	      0.00000000	      0.00000000
      0.09000000	      0.00000000	     -0.00000000	      0.00000000	      0.00000000	      0.00000000	      0.00000000	      0.00000000	      0.00000000	      0.00000000	      9.01617241	     13.64876175	   -110.00493622	   -326.53161302	  -1120.67679520	      0.00000000	      0.00000000	      0.00000000	   1671.78119294	      2.86231045	   -125.04003168	   -762.29077148	   -315.79292686	   -664.80107076	      0.00000000	      0.00000000	     -0.00000000	  -2336.55615172	      0.00000000	     -0.00000000	      0.00000000	      0.00000000	      0.00000000	      0.00000000	      0.00000000	      0.00000000	      0.00000000
      0.10000000	      0.00000000	     -0.00000000	      0.00000000	      0.00000000	      0.00000000	      0.00000000	      0.00000000	      0.00000000	      0.00000000	     11.84756756	     11.20721054	    -82.57509613	   -341.26260027	  -1120.73270827	      0.00000000	      0.00000000	      0.00000000	   1526.06791650	      5.35160712	   -127.81878709	   -785.31036377	   -316.49030441	   -665.05472204	      0.00000000	      0.00000000	      0.00000000	  -2098.81997730	      0.00000000	     -0.00000000	      0.00000000	      0.00000000	      0.00000000	      0.00000000	      0.00000000	      0.00000000	      0.00000000
      0.11000000	      0.00000000	     -0.00000000	      0.00000000	      0.00000000	      0.00000000	      0.00000000	      0.00000000	      0.00000000	      0.00000000	     13.37590027	      7.46993971	    -60.96529007	   -355.92464424	  -1116.96701737	      0.00000000	      0.00000000	      0.00000000	   1324.74979420	      7.18556223	   -129.75019899	   -803.68023682	   -316.99915045	   -664.14090259	      0.00000000	      0.00000000	     -0.00000000	  -2251.77389468	      0.00000000	     -0.00000000	      0.00000000	      0.00000000	      0.00000000	      0.00000000	      0.00000000	      0.00000000	      0.00000000
      0.12000000	      0.00000000	     -0.00000000	      0.00000000	      0.00000000	      0.00000000	      0.00000000	      0.00000000	      0.00000000	      0.00000000	     13.73841858	      4.08888960	    -41.56518173	   -369.32406907	  -1109.95103250	      0.00000000	      0.00000000	      0.00000000	   1100.27977585	      8.27227091	   -133.71350170	   -818.36773682	   -317.58874588	   -663.61750073	      0.00000000	      0.00000000	     -0.00000000	  -2280.05437069	      0.00000000	     -0.00000000	      0.00000000	      0.00000000	      0.00000000	      0.00000000	      0.00000000	      0.00000000	      0.00000000
      0.13000000	      0.00000000	     -0.00000000	      0.00000000	      0.00000000	      0.00000000	      0.00000000	      0.00000000	      0.00000000	      0.00000000	     13.94404984	      1.48803079	    -26.69086075	   -391.83912816	  -1097.82846407	      0.00000000	      0.00000000	      0.00000000	    853.80612065	      8.26094756	   -138.06300426	   -828.29443359	   -317.66966885	   -664.05597639	      0.00000000	      0.00000000	      0.00000000	  -2422.07372739	      0.00000000	     -0.00000000	      0.00000000	      0.00000000	      0.00000000	      0.00000000	      0.00000000	      0.00000000	      0.00000000
      0.14000000	      0.00000000	     -0.00000000	      0.00000000	      0.00000000	      0.00000000	      0.00000000	      0.00000000	      0.00000000	      0.00000000	      0.00000000	     -0.00000000	      0.00000000	      0.00000000	      0.00000000	      0.00000000	      0.00000000	      0.00000000	      0.00000000	      7.80120798	   -142.21913215	   -841.12719727	   -318.16634643	   -663.12420018	      0.00000000	     -0.00000000	     -0.00000000	  -2235.33040802	      0.00000000	     -0.00000000	      0.00000000	      0.00000000	      0.00000000	      0.00000000	      0.00000000	      0.00000000	      0.00000000
      0.15000000	      0.00000000	     -0.00000000	      0.00000000	      0.00000000	      0.00000000	      0.00000000	      0.00000000	      0.00000000	      0.00000000	      0.00000000	     -0.00000000	      0.00000000	      0.00000000	      0.00000000	      0.00000000	      0.00000000	      0.00000000	      0.00000000	      7.97874560	   -145.65283273	   -847.45251465	   -318.59098238	   -663.07757131	      0.00000000	      0.00000000	      0.00000000	  -2298.20296470	      0.00000000	     -0.00000000	      0.00000000	      0.00000000	      0.00000000	      0.00000000	      0.00000000	      0.00000000	      0.00000000
      0.16000000	      0.00000000	     -0.00000000	      0.00000000	      0.00000000	      0.00000000	      0.00000000	      0.00000000	      0.00000000	      0.00000000	      0.00000000	     -0.00000000	      0.00000000	      0.00000000	      0.00000000	      0.00000000	      0.00000000	      0.00000000	      0.00000000	      8.09806200	   -147.66880869	   -852.19909668	   -319.08460831	   -662.71362368	      0.00000000	      0.00000000	     -0.00000000	  -2075.64375502	      0.00000000	     -0.00000000	      0.00000000	      0.00000000	      0.00000000	      0.00000000	      0.00000000	      0.00000000	      0.00000000
      0.17000000	      0.00000000	     -0.00000000	      0.00000000	      0.00000000	      0.00000000	      0.00000000	      0.00000000	      0.00000000	      0.00000000	      0.00000000	     -0.00000000	      0.00000000	      0.00000000	      0.00000000	      0.00000000	      0.00000000	      0.00000000	      0.00000000	     10.74391802	   -146.35397433	   -853.59753418	   -319.90758184	   -663.03289971	      0.00000000	      0.00000000	     -0.00000000	  -2057.84244526	      0.00000000	     -0.00000000	      0.00000000	      0.00000000	      0.00000000	      0.00000000	      0.00000000	      0.00000000	      0.00000000
      0.18000000	      0.00000000	     -0.00000000	      0.00000000	      0.00000000	      0.00000000	      0.00000000	      0.00000000	      0.00000000	      0.00000000	      0.00000000	     -0.00000000	      0.00000000	      0.00000000	      0.00000000	      0.00000000	      0.00000000	      0.00000000	      0.00000000	     13.04047289	   -142.90931816	   -848.73016357	   -319.94956208	   -662.86406743	      0.00000000	      0.00000000	     -0.00000000	  -1962.50073168	      0.00000000	     -0.00000000	      0.00000000	      0.00000000	      0.00000000	      0.00000000	      0.00000000	      0.00000000	      0.00000000
